<?xml version="1.0" standalone="no"?>
<!DOCTYPE svg PUBLIC "-//W3C//DTD SVG 20010904//EN"
 "http://www.w3.org/TR/2001/REC-SVG-20010904/DTD/svg10.dtd">
<svg version="1.0" xmlns="http://www.w3.org/2000/svg"
 width="500.000000pt" height="500.000000pt" viewBox="0 0 500.000000 500.000000"
 preserveAspectRatio="xMidYMid meet">

<g transform="translate(0.000000,500.000000) scale(0.100000,-0.100000)"
fill="#000000" stroke="none">
<path d="M2275 4724 c-22 -3 -101 -16 -174 -30 -532 -100 -1027 -414 -1356
-859 -247 -334 -388 -706 -434 -1145 -43 -413 58 -908 261 -1280 169 -307 393
-561 673 -762 106 -76 285 -179 297 -172 4 3 8 63 8 133 l0 128 -97 65 c-112
74 -230 168 -288 227 -34 36 -45 41 -84 41 -44 0 -127 41 -218 107 l-33 24 0
125 c0 113 -2 128 -23 162 -43 68 -117 233 -157 352 -297 872 44 1850 815
2342 386 246 841 349 1288 293 571 -73 1072 -382 1392 -860 221 -330 333 -687
340 -1090 6 -333 -55 -618 -196 -914 -48 -100 -59 -134 -59 -174 l0 -50 -30 6
c-39 8 -39 -8 1 -28 l31 -16 -4 -123 c-2 -85 -7 -128 -17 -139 -11 -14 -36
-17 -155 -17 l-141 0 -85 -76 c-87 -78 -242 -193 -317 -235 l-43 -24 0 -138 0
-137 71 36 c380 191 732 549 938 954 425 833 304 1824 -308 2530 -314 362
-758 618 -1241 716 -121 24 -160 27 -375 29 -132 2 -258 1 -280 -1z"/>
<path d="M2458 4367 c-6 -68 -42 -146 -161 -344 -53 -87 -100 -178 -107 -202
-31 -118 44 -238 197 -315 29 -14 55 -26 59 -26 3 0 -11 23 -31 50 -94 128
-82 217 57 420 126 183 133 221 69 344 -21 41 -47 86 -59 100 l-20 26 -4 -53z"/>
<path d="M2650 4085 c0 -42 -40 -123 -105 -215 -77 -109 -97 -157 -85 -201 5
-19 15 -43 22 -52 12 -15 13 -14 15 13 3 38 22 74 83 155 76 101 100 154 100
222 -1 32 -7 69 -15 83 l-14 25 -1 -30z"/>
<path d="M2770 3950 c0 -63 -35 -139 -101 -220 -67 -81 -83 -112 -94 -178 l-7
-43 102 102 c123 124 144 160 144 249 0 57 -22 130 -39 130 -3 0 -5 -18 -5
-40z"/>
<path d="M3402 3669 c-21 -8 -23 -15 -21 -66 6 -159 -41 -479 -69 -468 -23 9
-34 -6 -15 -21 16 -12 12 -13 -37 -14 -54 -1 -100 -23 -100 -49 0 -14 17 -14
25 -1 7 11 67 13 103 4 l23 -7 -21 -14 c-12 -8 -29 -16 -38 -18 -9 -2 -19 -4
-22 -5 -3 0 3 -7 12 -14 16 -12 15 -17 -15 -68 -19 -30 -40 -72 -48 -92 l-15
-38 -12 54 c-6 29 -16 91 -22 138 -10 78 -9 91 10 155 34 111 35 122 11 137
-21 13 -28 42 -12 52 5 3 37 2 70 -2 46 -7 61 -6 61 3 0 12 -43 25 -84 25 -11
0 -34 7 -51 16 -20 11 -63 18 -130 20 -55 3 -109 5 -120 7 -11 1 -22 -2 -24
-8 -3 -6 27 -15 70 -21 62 -8 79 -15 108 -42 29 -28 33 -37 27 -64 -16 -78
-115 -186 -229 -247 -39 -21 -48 -23 -62 -11 -13 11 -15 24 -10 61 5 36 3 54
-9 71 -20 29 -21 72 -1 88 23 19 11 24 -45 21 -28 -1 -50 2 -50 7 0 6 15 22
33 37 96 81 107 95 101 120 -3 14 -12 25 -19 25 -7 0 -15 5 -17 11 -2 7 -18
13 -36 15 -28 3 -33 0 -46 -31 -16 -36 -40 -46 -50 -20 -8 21 -36 19 -36 -2 0
-10 7 -31 15 -46 19 -36 8 -55 -71 -117 -30 -24 -62 -57 -70 -72 -8 -15 -19
-28 -25 -28 -6 0 -34 -22 -63 -50 -29 -27 -57 -50 -63 -50 -6 0 -22 -11 -37
-25 -27 -25 -66 -34 -66 -15 0 5 11 12 25 16 19 5 25 13 25 34 0 16 5 32 10
35 12 7 5 44 -17 97 -21 51 -60 60 -150 33 -53 -16 -73 -41 -73 -91 0 -32 30
-84 47 -84 15 0 16 -9 4 -29 -8 -12 -14 -11 -38 5 -15 10 -44 26 -63 35 -19 9
-55 35 -80 58 -24 22 -52 44 -62 47 -23 7 -23 15 6 72 22 44 23 49 8 59 -16 9
-16 14 0 62 20 63 16 76 -24 90 -47 17 -64 13 -76 -14 -10 -21 -9 -30 3 -49
13 -20 13 -27 -2 -64 -9 -23 -20 -42 -25 -42 -5 0 -25 12 -44 27 -29 24 -33
32 -28 60 8 44 -3 76 -26 70 -12 -3 -25 5 -39 24 -24 32 -63 39 -87 15 -18
-19 -18 -20 12 -83 15 -30 56 -83 90 -118 35 -36 64 -73 64 -83 0 -18 -41 -68
-87 -105 -18 -16 -26 -17 -62 -6 -36 11 -43 10 -61 -6 -22 -20 -26 -14 -9 16
11 22 -5 124 -23 146 -24 30 -135 23 -155 -10 -15 -25 -13 -122 4 -154 17 -33
17 -33 -10 -60 -15 -15 -57 -39 -94 -53 l-67 -25 -12 -75 c-7 -41 -11 -77 -8
-82 3 -4 0 -17 -6 -28 -24 -45 -6 -371 23 -407 5 -7 22 -13 38 -13 l29 0 0
-87 c0 -49 -7 -119 -16 -158 -15 -67 -27 -137 -55 -305 -9 -51 -22 -88 -41
-117 -28 -41 -37 -83 -18 -83 6 0 10 14 10 30 l0 30 81 0 c73 0 80 2 75 18 -4
12 2 26 18 39 25 22 27 29 92 328 14 66 30 125 34 130 4 6 15 35 24 65 25 86
31 90 55 37 12 -25 21 -51 21 -57 0 -6 8 -27 19 -48 10 -20 26 -71 36 -112 10
-41 24 -93 32 -115 41 -112 59 -152 77 -177 11 -16 19 -42 18 -61 -1 -32 3
-36 59 -66 41 -21 73 -31 104 -31 58 0 59 17 5 72 -22 23 -40 49 -40 57 0 8
-4 28 -10 45 -26 87 -82 348 -100 471 -11 77 -29 171 -40 209 -11 38 -17 73
-14 78 14 22 79 39 116 30 20 -5 39 -7 42 -5 5 6 -49 162 -82 234 -11 24 -28
70 -38 101 -20 66 -17 74 53 115 24 13 43 31 43 37 0 7 9 23 20 36 l20 23 33
-34 c18 -19 54 -50 80 -69 26 -20 50 -46 53 -60 3 -14 12 -41 21 -62 8 -20 13
-40 10 -45 -3 -5 0 -36 8 -69 18 -76 19 -123 1 -143 -17 -18 -40 -146 -30
-162 11 -18 -36 -179 -72 -250 -40 -78 -43 -112 -12 -133 18 -13 25 -13 46 -2
18 10 34 10 64 2 38 -10 41 -9 64 17 13 15 27 40 30 55 12 53 88 232 94 225
11 -13 50 -141 50 -164 0 -11 5 -29 11 -40 11 -21 16 -57 25 -179 3 -44 16
-101 30 -138 21 -52 24 -76 22 -150 l-3 -87 56 -3 c42 -2 61 1 73 13 22 22 20
51 -5 76 -12 12 -22 26 -24 33 -1 6 -5 18 -9 28 -4 9 -4 49 1 90 5 40 5 93 0
118 -5 25 -10 135 -13 245 -7 319 -11 350 -50 384 -26 22 -31 46 -13 57 6 3 9
20 6 38 -7 47 18 175 45 226 18 35 139 170 153 170 1 0 2 -6 1 -14 0 -8 4 -16
9 -18 6 -2 11 12 13 30 2 18 12 42 23 53 24 24 29 24 29 2 0 -33 28 -97 48
-113 20 -17 20 -17 -9 -69 -22 -38 -43 -59 -83 -82 -30 -16 -60 -37 -67 -46
-26 -30 -39 -89 -44 -198 -4 -60 -13 -170 -22 -243 -14 -122 -14 -134 1 -151
9 -10 16 -24 16 -32 0 -9 7 -24 15 -35 13 -18 14 -17 15 17 0 34 2 37 35 41
33 4 35 2 36 -27 0 -16 1 -100 3 -185 3 -197 16 -351 30 -355 6 -2 37 -6 69
-10 31 -4 55 -10 52 -15 -3 -5 -34 -18 -70 -30 -36 -12 -65 -26 -65 -31 0 -5
54 -9 120 -9 l120 0 0 40 0 41 57 -3 c57 -3 57 -3 66 -40 l9 -38 109 0 c60 0
109 4 109 8 0 5 -28 17 -62 27 -77 23 -89 32 -64 50 19 15 19 43 0 282 -3 40
3 109 16 191 21 124 21 132 6 251 -21 161 -21 171 4 171 10 0 29 -5 42 -11 22
-9 23 -16 23 -98 0 -48 5 -99 12 -112 12 -23 20 -73 27 -154 2 -22 13 -56 25
-76 12 -20 33 -69 47 -110 14 -41 30 -78 35 -83 5 -6 9 -21 9 -35 0 -15 7 -35
15 -45 11 -15 13 -36 9 -87 -7 -67 -6 -68 20 -80 35 -16 47 -4 57 61 4 28 19
79 33 115 29 71 33 127 12 144 -8 7 -18 25 -21 41 -4 16 -16 41 -27 56 -15 19
-22 44 -25 87 -2 33 -7 65 -13 72 -5 6 -7 42 -3 83 6 69 7 72 24 56 10 -9 32
-45 49 -80 18 -35 36 -64 40 -64 4 0 24 -25 44 -55 20 -31 43 -58 51 -62 8 -3
15 -11 15 -19 0 -8 27 -52 60 -98 41 -58 60 -94 60 -115 0 -16 5 -33 11 -37 8
-5 9 -34 5 -94 -6 -75 -5 -88 9 -94 34 -13 84 33 85 77 0 19 11 37 35 58 19
17 35 38 35 46 0 23 -51 83 -70 83 -11 0 -20 10 -24 28 -27 112 -61 199 -87
223 -16 14 -29 33 -29 42 0 9 -4 17 -9 17 -8 0 -71 149 -71 168 0 5 -18 51
-41 101 -42 97 -64 192 -50 220 5 9 18 24 29 34 20 18 21 18 56 -30 81 -110
139 -283 95 -283 -14 0 -10 -43 7 -68 19 -28 45 -28 71 1 20 21 20 25 8 132
-11 95 -18 120 -50 178 -32 57 -36 74 -31 107 5 29 1 47 -15 75 -16 27 -18 39
-10 49 6 7 9 20 5 29 -4 12 1 15 22 12 19 -2 35 5 52 24 48 52 54 101 17 135
-14 13 -30 36 -35 52 -17 49 -66 74 -143 74 -38 0 -67 -4 -67 -10 0 -5 -5 -10
-11 -10 -8 0 -9 47 -3 168 4 92 8 177 8 189 1 12 7 28 14 35 13 13 16 37 6 62
-7 18 -45 20 -82 5z m-2196 -1141 c-9 -68 -25 -97 -26 -47 0 51 11 99 23 99 6
0 7 -19 3 -52z"/>
<path d="M860 1412 l0 -209 94 -56 c89 -54 98 -57 160 -57 l66 0 0 265 0 265
-55 0 -55 0 0 -205 c0 -228 1 -226 -66 -184 l-34 21 0 184 0 184 -55 0 -55 0
0 -208z"/>
<path d="M3897 1602 c-14 -15 -17 -40 -17 -128 l0 -110 103 -45 102 -44 0 -40
c0 -40 0 -40 -40 -40 -33 0 -42 4 -52 26 -8 17 -31 34 -63 47 l-50 21 0 -84
c0 -116 -1 -115 164 -115 169 0 166 -3 166 142 l0 105 -100 43 c-55 24 -105
49 -111 56 -6 7 -9 25 -7 41 3 26 7 28 51 31 44 3 47 2 47 -21 0 -20 10 -28
51 -46 29 -11 56 -21 60 -21 5 0 9 36 9 80 0 117 -5 120 -168 120 -112 0 -131
-2 -145 -18z"/>
<path d="M1240 1315 l0 -225 130 0 130 0 0 44 0 43 -77 -1 -78 -1 -3 48 -3 49
60 -4 61 -3 0 48 0 47 -61 0 -60 0 3 47 3 46 78 -1 77 -1 0 44 0 45 -130 0
-130 0 0 -225z"/>
<path d="M1560 1314 l0 -225 46 3 46 3 -1 176 -2 177 35 4 c18 2 39 2 45 0 7
-2 11 -61 11 -183 l0 -180 48 3 47 3 3 196 c1 114 -2 208 -8 223 l-10 26 -130
0 -130 0 0 -226z"/>
<path d="M1904 1527 c-2 -7 -3 -107 -2 -222 l3 -210 119 -3 c78 -2 123 1 132
9 16 13 20 149 4 149 -23 0 -79 -35 -83 -51 -6 -24 -30 -33 -62 -25 l-25 6 0
135 0 135 40 0 c25 0 42 -6 48 -16 8 -14 13 -14 50 1 37 15 42 21 42 49 0 18
-5 37 -12 44 -17 17 -247 17 -254 -1z"/>
<path d="M2230 1315 l0 -225 130 0 130 0 0 50 c0 48 -1 50 -20 40 -11 -6 -46
-10 -78 -8 l-57 3 -3 48 -3 47 65 0 66 0 0 45 0 45 -66 0 -65 0 3 47 3 47 60
1 c33 1 68 -3 78 -7 15 -8 17 -3 17 42 l0 50 -130 0 -130 0 0 -225z"/>
<path d="M2550 1315 l0 -225 128 0 c86 0 132 4 140 12 17 17 17 409 0 426 -8
8 -54 12 -140 12 l-128 0 0 -225z m168 137 c9 -7 12 -42 10 -143 l-3 -134 -37
-3 -38 -3 0 140 c0 137 0 140 23 144 12 2 24 5 27 5 3 1 11 -2 18 -6z"/>
<path d="M2902 1528 c-17 -17 -17 -409 0 -426 8 -8 51 -12 130 -12 106 0 118
2 128 19 6 12 10 97 10 206 0 109 -4 194 -10 206 -10 17 -22 19 -128 19 -79 0
-122 -4 -130 -12z m154 -78 c12 0 14 -23 12 -137 l-3 -138 -28 -3 c-51 -6 -57
8 -57 144 0 107 2 124 18 133 9 6 23 8 30 6 8 -3 20 -5 28 -5z"/>
<path d="M3230 1315 l0 -225 45 0 45 0 0 53 c0 41 5 58 20 72 18 17 21 17 45
1 22 -14 25 -24 25 -72 l0 -55 47 3 47 3 -3 70 c-1 57 -6 73 -21 84 -26 17
-25 36 0 54 19 13 20 23 18 123 l-3 109 -132 3 -133 3 0 -226z m173 136 c4 0
7 -25 7 -54 0 -48 -3 -54 -29 -70 -53 -31 -61 -25 -61 52 0 78 8 85 83 72z"/>
<path d="M3564 1527 c-2 -7 -3 -107 -2 -222 l3 -210 128 -3 127 -3 0 51 c0 48
-1 50 -20 40 -11 -6 -46 -10 -78 -8 l-57 3 -3 48 -3 49 65 -4 66 -3 0 50 0 50
-66 -3 -65 -4 3 49 3 48 60 0 c33 0 68 -4 78 -8 15 -7 17 -2 17 43 l0 50 -125
0 c-93 0 -127 -3 -131 -13z"/>
<path d="M4052 1230 c-10 -17 -10 -20 3 -20 8 0 15 9 15 20 0 11 -1 20 -3 20
-1 0 -8 -9 -15 -20z"/>
<path d="M2154 1047 c-2 -7 -3 -78 -2 -157 l3 -145 33 -3 c32 -3 32 -3 32 41
0 43 2 46 48 72 78 46 82 51 82 120 0 34 -5 66 -12 73 -17 17 -177 16 -184 -1z
m124 -85 c2 -33 -1 -47 -15 -58 -35 -26 -43 -17 -43 47 0 60 0 60 28 57 24 -3
27 -7 30 -46z"/>
<path d="M2405 1047 c-3 -7 -4 -78 -3 -157 l3 -145 90 0 90 0 0 155 0 155 -88
3 c-66 2 -89 -1 -92 -11z m120 -147 l0 -105 -30 0 -30 0 -3 94 c-3 114 -1 123
35 119 l28 -3 0 -105z"/>
<path d="M2640 899 l0 -160 33 3 c30 3 32 6 35 45 2 24 9 44 18 47 27 11 43
-5 46 -47 3 -39 5 -42 36 -45 l32 -3 0 49 c0 40 -4 53 -22 66 l-23 15 23 20
c18 16 22 29 22 83 0 36 -5 69 -12 76 -8 8 -45 12 -100 12 l-88 0 0 -161z
m128 63 c2 -33 -1 -47 -15 -58 -35 -26 -43 -17 -43 47 0 60 0 60 28 57 24 -3
27 -7 30 -46z"/>
<path d="M1577 743 c-4 -3 -7 -118 -7 -254 0 -216 2 -248 16 -253 30 -12 279
-7 292 6 15 15 17 178 2 178 -28 0 -99 -46 -105 -67 -5 -21 -11 -24 -48 -21
l-42 3 0 155 0 155 41 3 c37 3 43 0 50 -21 l9 -24 53 23 c50 23 52 25 52 62 0
21 -5 43 -12 50 -13 13 -289 18 -301 5z"/>
<path d="M3132 738 c-17 -17 -17 -479 0 -496 8 -8 57 -12 155 -12 l143 0 10
26 c6 14 10 119 10 234 0 115 -4 220 -10 234 l-10 26 -143 0 c-98 0 -147 -4
-155 -12z m198 -248 l0 -160 -44 0 c-31 0 -46 5 -50 16 -3 9 -6 73 -6 144 0
71 3 135 6 144 4 11 19 16 50 16 l44 0 0 -160z"/>
<path d="M3260 500 c0 -72 3 -130 6 -130 3 0 14 5 25 10 17 10 19 22 19 130
l0 120 -25 0 -25 0 0 -130z"/>
<path d="M1950 455 l0 -225 50 0 50 0 0 60 c0 55 2 60 25 66 39 10 55 -11 55
-72 l0 -54 50 0 50 0 0 70 c0 63 -2 71 -25 86 -14 9 -25 22 -25 28 0 7 11 19
25 26 24 13 25 17 25 111 0 131 2 129 -156 129 l-124 0 0 -225z m180 80 c0
-52 -2 -57 -32 -75 -18 -11 -36 -20 -40 -20 -5 0 -8 34 -8 75 l0 75 40 0 40 0
0 -55z"/>
<path d="M2070 500 c0 -28 2 -29 20 -18 11 7 20 21 20 30 0 11 -8 18 -20 18
-16 0 -20 -7 -20 -30z"/>
<path d="M2290 455 l0 -225 45 0 45 0 0 225 0 225 -45 0 -45 0 0 -225z"/>
<path d="M2460 670 c-21 -13 -28 -191 -8 -207 7 -6 48 -26 92 -44 83 -35 92
-44 82 -84 -5 -21 -12 -25 -42 -25 -28 0 -37 5 -41 20 -6 23 -78 64 -93 55
-13 -8 -13 -111 0 -136 10 -17 22 -19 135 -19 146 0 138 -8 133 128 l-3 83
-85 37 c-83 37 -85 38 -88 75 l-3 37 41 0 c34 0 43 -4 47 -20 5 -17 67 -60 88
-60 11 0 5 146 -7 158 -15 15 -225 16 -248 2z"/>
<path d="M2787 673 c-4 -3 -7 -25 -7 -48 l0 -41 48 0 47 1 3 -177 2 -178 45 0
45 0 0 181 0 181 45 -4 45 -3 0 47 0 48 -133 0 c-74 0 -137 -3 -140 -7z"/>
<path d="M1700 515 c0 -114 0 -116 26 -127 18 -9 27 -9 32 -1 8 13 118 63 138
63 10 0 14 -16 14 -59 0 -33 5 -63 10 -66 7 -4 10 35 8 120 l-3 127 -39 16
c-39 15 -42 15 -108 -13 -13 -5 -17 0 -20 22 -2 22 -9 29 -30 31 l-28 3 0
-116z"/>
<path d="M3080 559 c0 -7 -9 -9 -21 -6 -12 3 -32 2 -45 -3 -23 -9 -24 -12 -24
-131 l0 -122 46 7 c25 3 50 8 55 12 13 7 12 254 -1 254 -5 0 -10 -5 -10 -11z"/>
<path d="M2768 503 c-16 -2 -28 -9 -28 -14 0 -6 -13 -8 -32 -5 l-33 6 33 -17
32 -17 0 -97 c0 -54 3 -100 8 -102 4 -2 28 -2 55 1 l47 4 0 124 0 124 -27 -1
c-16 -1 -40 -4 -55 -6z"/>
<path d="M2250 471 c0 -19 -8 -35 -21 -45 l-21 -14 21 -11 c18 -10 21 -21 21
-82 0 -44 4 -68 10 -64 6 4 10 57 10 126 0 73 -4 119 -10 119 -5 0 -10 -13
-10 -29z"/>
<path d="M2408 485 c-11 -18 -9 -233 2 -240 6 -4 10 27 10 84 0 105 -1 104 84
65 40 -18 56 -31 56 -45 0 -13 7 -19 21 -19 15 0 20 5 17 20 -2 16 -26 31 -88
58 -67 30 -85 43 -90 62 -3 14 -9 20 -12 15z"/>
<path d="M2077 334 c-4 -4 -7 -18 -7 -31 0 -17 6 -23 21 -23 16 0 20 5 17 27
-3 26 -18 39 -31 27z"/>
</g>
</svg>
